<?xml version="1.0" encoding="UTF-8" standalone="no"?>
<!DOCTYPE svg PUBLIC "-//W3C//DTD SVG 1.1//EN"
 "http://www.w3.org/Graphics/SVG/1.1/DTD/svg11.dtd">
<!-- Generated by graphviz version 2.26.3 (20100126.1600)
 -->
<!-- Title: pddl_problem Pages: 1 -->
<svg width="144pt" height="134pt"
 viewBox="0.00 0.00 144.00 134.32" xmlns="http://www.w3.org/2000/svg" xmlns:xlink="http://www.w3.org/1999/xlink">
<g id="graph1" class="graph" transform="scale(0.142292 0.142292) rotate(0) translate(4 940)">
<title>pddl_problem</title>
<polygon fill="white" stroke="white" points="-4,5 -4,-940 1009,-940 1009,5 -4,5"/>
<!-- state1 -->
<g id="node1" class="node"><title>state1</title>
<ellipse fill="none" stroke="black" stroke-dasharray="5,2" cx="362" cy="-918" rx="73.1565" ry="18"/>
<text text-anchor="middle" x="362" y="-913.9" font-family="Times Roman,serif" font-size="14.00">person(mike)</text>
</g>
<!-- state2 -->
<g id="node2" class="node"><title>state2</title>
<ellipse fill="none" stroke="black" cx="293" cy="-816" rx="79.9031" ry="29.6985"/>
<text text-anchor="middle" x="293" y="-820.4" font-family="Times Roman,serif" font-size="14.00">hungry(mike),</text>
<text text-anchor="middle" x="293" y="-803.4" font-family="Times Roman,serif" font-size="14.00">person(mike)</text>
</g>
<!-- state1&#45;&gt;state2 -->
<g id="edge2" class="edge"><title>state1&#45;&gt;state2</title>
<path fill="none" stroke="black" d="M349.981,-900.233C341.25,-887.326 329.117,-869.39 318.289,-853.384"/>
<polygon fill="black" stroke="black" points="320.941,-851.057 312.438,-844.735 315.143,-854.979 320.941,-851.057"/>
<text text-anchor="middle" x="372" y="-868.9" font-family="Times Roman,serif" font-size="14.00">wait(mike)</text>
</g>
<!-- state3 -->
<g id="node3" class="node"><title>state3</title>
<ellipse fill="none" stroke="black" cx="476" cy="-816" rx="84.8528" ry="29.6985"/>
<text text-anchor="middle" x="476" y="-820.4" font-family="Times Roman,serif" font-size="14.00">has_mix(mike),</text>
<text text-anchor="middle" x="476" y="-803.4" font-family="Times Roman,serif" font-size="14.00">person(mike)</text>
</g>
<!-- state1&#45;&gt;state3 -->
<g id="edge4" class="edge"><title>state1&#45;&gt;state3</title>
<path fill="none" stroke="black" d="M388.153,-900.99C396.36,-895.274 405.285,-888.653 413,-882 423.611,-872.849 434.41,-862.143 444.001,-852.048"/>
<polygon fill="black" stroke="black" points="446.802,-854.178 451.077,-844.484 441.689,-849.396 446.802,-854.178"/>
<text text-anchor="middle" x="495.5" y="-868.9" font-family="Times Roman,serif" font-size="14.00">go_shopping(mike)</text>
</g>
<!-- state4 -->
<g id="node6" class="node"><title>state4</title>
<ellipse fill="none" stroke="black" cx="293" cy="-690" rx="84.8528" ry="41.7193"/>
<text text-anchor="middle" x="293" y="-702.9" font-family="Times Roman,serif" font-size="14.00">has_mix(mike),</text>
<text text-anchor="middle" x="293" y="-685.9" font-family="Times Roman,serif" font-size="14.00">hungry(mike),</text>
<text text-anchor="middle" x="293" y="-668.9" font-family="Times Roman,serif" font-size="14.00">person(mike)</text>
</g>
<!-- state2&#45;&gt;state4 -->
<g id="edge6" class="edge"><title>state2&#45;&gt;state4</title>
<path fill="none" stroke="black" d="M293,-786.459C293,-773.22 293,-757.205 293,-742.06"/>
<polygon fill="black" stroke="black" points="296.5,-741.759 293,-731.759 289.5,-741.759 296.5,-741.759"/>
<text text-anchor="middle" x="357.5" y="-754.9" font-family="Times Roman,serif" font-size="14.00">go_shopping(mike)</text>
</g>
<!-- state3&#45;&gt;state3 -->
<g id="edge46" class="edge"><title>state3&#45;&gt;state3</title>
<path fill="none" stroke="black" d="M556.325,-825.759C569.742,-824.394 579,-821.141 579,-816 579,-812.265 574.113,-809.526 566.294,-807.784"/>
<polygon fill="black" stroke="black" points="566.743,-804.312 556.325,-806.241 565.672,-811.23 566.743,-804.312"/>
<text text-anchor="middle" x="643.5" y="-811.9" font-family="Times Roman,serif" font-size="14.00">go_shopping(mike)</text>
</g>
<!-- state3&#45;&gt;state4 -->
<g id="edge42" class="edge"><title>state3&#45;&gt;state4</title>
<path fill="none" stroke="black" d="M458.742,-787.038C450.13,-774.422 438.813,-760.217 426,-750 410.001,-737.243 390.855,-726.562 372.143,-717.918"/>
<polygon fill="black" stroke="black" points="373.565,-714.72 363.007,-713.838 370.71,-721.112 373.565,-714.72"/>
<text text-anchor="middle" x="480" y="-754.9" font-family="Times Roman,serif" font-size="14.00">wait(mike)</text>
</g>
<!-- state11 -->
<g id="node31" class="node"><title>state11</title>
<ellipse fill="none" stroke="black" cx="632" cy="-690" rx="89.0955" ry="41.7193"/>
<text text-anchor="middle" x="632" y="-702.9" font-family="Times Roman,serif" font-size="14.00">has_cake(mike),</text>
<text text-anchor="middle" x="632" y="-685.9" font-family="Times Roman,serif" font-size="14.00">has_mix(mike),</text>
<text text-anchor="middle" x="632" y="-668.9" font-family="Times Roman,serif" font-size="14.00">person(mike)</text>
</g>
<!-- state3&#45;&gt;state11 -->
<g id="edge44" class="edge"><title>state3&#45;&gt;state11</title>
<path fill="none" stroke="black" d="M511.246,-789.044C520.031,-782.234 529.397,-774.897 538,-768 551.97,-756.802 566.95,-744.506 580.753,-733.054"/>
<polygon fill="black" stroke="black" points="583.276,-735.508 588.729,-726.424 578.801,-730.125 583.276,-735.508"/>
<text text-anchor="middle" x="617" y="-754.9" font-family="Times Roman,serif" font-size="14.00">make_cake(mike)</text>
</g>
<!-- state4&#45;&gt;state4 -->
<g id="edge10" class="edge"><title>state4&#45;&gt;state4</title>
<path fill="none" stroke="black" d="M374.597,-701.685C387.323,-699.938 396,-696.043 396,-690 396,-685.751 391.71,-682.564 384.739,-680.439"/>
<polygon fill="black" stroke="black" points="385.102,-676.939 374.597,-678.315 383.667,-683.79 385.102,-676.939"/>
<text text-anchor="middle" x="460.5" y="-685.9" font-family="Times Roman,serif" font-size="14.00">go_shopping(mike)</text>
</g>
<!-- state5 -->
<g id="node8" class="node"><title>state5</title>
<ellipse fill="none" stroke="black" cx="383" cy="-540" rx="89.0955" ry="53.7401"/>
<text text-anchor="middle" x="383" y="-561.4" font-family="Times Roman,serif" font-size="14.00">has_cake(mike),</text>
<text text-anchor="middle" x="383" y="-544.4" font-family="Times Roman,serif" font-size="14.00">has_mix(mike),</text>
<text text-anchor="middle" x="383" y="-527.4" font-family="Times Roman,serif" font-size="14.00">hungry(mike),</text>
<text text-anchor="middle" x="383" y="-510.4" font-family="Times Roman,serif" font-size="14.00">person(mike)</text>
</g>
<!-- state4&#45;&gt;state5 -->
<g id="edge8" class="edge"><title>state4&#45;&gt;state5</title>
<path fill="none" stroke="black" d="M317.118,-649.803C326.43,-634.284 337.274,-616.211 347.444,-599.26"/>
<polygon fill="black" stroke="black" points="350.545,-600.894 352.689,-590.519 344.543,-597.293 350.545,-600.894"/>
<text text-anchor="middle" x="397" y="-616.9" font-family="Times Roman,serif" font-size="14.00">make_cake(mike)</text>
</g>
<!-- state5&#45;&gt;state5 -->
<g id="edge14" class="edge"><title>state5&#45;&gt;state5</title>
<path fill="none" stroke="black" d="M471.56,-546.531C482.681,-545.38 490,-543.203 490,-540 490,-537.898 486.848,-536.238 481.538,-535.019"/>
<polygon fill="black" stroke="black" points="481.979,-531.546 471.56,-533.469 480.904,-538.463 481.979,-531.546"/>
<text text-anchor="middle" x="549" y="-535.9" font-family="Times Roman,serif" font-size="14.00">make_cake(mike)</text>
</g>
<!-- state5&#45;&gt;state5 -->
<g id="edge16" class="edge"><title>state5&#45;&gt;state5</title>
<path fill="none" stroke="black" d="M469.215,-553.894C533.903,-557.346 608,-552.715 608,-540 608,-527.956 541.511,-523.165 479.515,-525.627"/>
<polygon fill="black" stroke="black" points="479.042,-522.145 469.215,-526.106 479.367,-529.137 479.042,-522.145"/>
<text text-anchor="middle" x="672.5" y="-535.9" font-family="Times Roman,serif" font-size="14.00">go_shopping(mike)</text>
</g>
<!-- state6 -->
<g id="node11" class="node"><title>state6</title>
<ellipse fill="none" stroke="black" cx="485" cy="-390" rx="99.9096" ry="41.7193"/>
<text text-anchor="middle" x="485" y="-402.9" font-family="Times Roman,serif" font-size="14.00">eaten_cake(mike),</text>
<text text-anchor="middle" x="485" y="-385.9" font-family="Times Roman,serif" font-size="14.00">has_mix(mike),</text>
<text text-anchor="middle" x="485" y="-368.9" font-family="Times Roman,serif" font-size="14.00">person(mike)</text>
</g>
<!-- state5&#45;&gt;state6 -->
<g id="edge12" class="edge"><title>state5&#45;&gt;state6</title>
<path fill="none" stroke="black" d="M416.681,-490.469C428.047,-473.755 440.714,-455.126 452.024,-438.494"/>
<polygon fill="black" stroke="black" points="455.072,-440.236 457.801,-429.999 449.284,-436.3 455.072,-440.236"/>
<text text-anchor="middle" x="503" y="-454.9" font-family="Times Roman,serif" font-size="14.00">eat_cake_a(mike)</text>
</g>
<!-- state6&#45;&gt;state6 -->
<g id="edge22" class="edge"><title>state6&#45;&gt;state6</title>
<path fill="none" stroke="black" d="M581.302,-401.311C594.327,-399.415 603,-395.645 603,-390 603,-385.943 598.52,-382.854 591.163,-380.734"/>
<polygon fill="black" stroke="black" points="591.804,-377.292 581.302,-378.689 590.383,-384.146 591.804,-377.292"/>
<text text-anchor="middle" x="667.5" y="-385.9" font-family="Times Roman,serif" font-size="14.00">go_shopping(mike)</text>
</g>
<!-- state7 -->
<g id="node15" class="node"><title>state7</title>
<ellipse fill="none" stroke="black" cx="757" cy="-240" rx="99.9096" ry="53.7401"/>
<text text-anchor="middle" x="757" y="-261.4" font-family="Times Roman,serif" font-size="14.00">eaten_cake(mike),</text>
<text text-anchor="middle" x="757" y="-244.4" font-family="Times Roman,serif" font-size="14.00">has_mix(mike),</text>
<text text-anchor="middle" x="757" y="-227.4" font-family="Times Roman,serif" font-size="14.00">hungry(mike),</text>
<text text-anchor="middle" x="757" y="-210.4" font-family="Times Roman,serif" font-size="14.00">person(mike)</text>
</g>
<!-- state6&#45;&gt;state7 -->
<g id="edge18" class="edge"><title>state6&#45;&gt;state7</title>
<path fill="none" stroke="black" d="M545.366,-356.71C584.525,-335.115 635.951,-306.755 678.304,-283.399"/>
<polygon fill="black" stroke="black" points="680.13,-286.389 687.196,-278.495 676.749,-280.259 680.13,-286.389"/>
<text text-anchor="middle" x="658" y="-316.9" font-family="Times Roman,serif" font-size="14.00">wait(mike)</text>
</g>
<!-- state8 -->
<g id="node16" class="node"><title>state8</title>
<ellipse fill="lightgrey" stroke="black" cx="100" cy="-240" rx="99.9096" ry="53.7401"/>
<text text-anchor="middle" x="100" y="-261.4" font-family="Times Roman,serif" font-size="14.00">eaten_cake(mike),</text>
<text text-anchor="middle" x="100" y="-244.4" font-family="Times Roman,serif" font-size="14.00">has_cake(mike),</text>
<text text-anchor="middle" x="100" y="-227.4" font-family="Times Roman,serif" font-size="14.00">has_mix(mike),</text>
<text text-anchor="middle" x="100" y="-210.4" font-family="Times Roman,serif" font-size="14.00">person(mike)</text>
</g>
<!-- state6&#45;&gt;state8 -->
<g id="edge20" class="edge"><title>state6&#45;&gt;state8</title>
<path fill="none" stroke="black" d="M411.678,-361.433C348.75,-336.916 257.809,-301.484 190.387,-275.216"/>
<polygon fill="black" stroke="black" points="191.623,-271.941 181.035,-271.572 189.082,-278.464 191.623,-271.941"/>
<text text-anchor="middle" x="385" y="-316.9" font-family="Times Roman,serif" font-size="14.00">make_cake(mike)</text>
</g>
<!-- state7&#45;&gt;state7 -->
<g id="edge26" class="edge"><title>state7&#45;&gt;state7</title>
<path fill="none" stroke="black" d="M854.214,-253.146C866.731,-250.866 875,-246.484 875,-240 875,-235.441 870.912,-231.921 864.133,-229.44"/>
<polygon fill="black" stroke="black" points="864.773,-225.99 854.214,-226.854 863.007,-232.764 864.773,-225.99"/>
<text text-anchor="middle" x="939.5" y="-235.9" font-family="Times Roman,serif" font-size="14.00">go_shopping(mike)</text>
</g>
<!-- state9 -->
<g id="node20" class="node"><title>state9</title>
<ellipse fill="lightgrey" stroke="black" cx="519" cy="-66" rx="99.9096" ry="65.7609"/>
<text text-anchor="middle" x="519" y="-95.9" font-family="Times Roman,serif" font-size="14.00">eaten_cake(mike),</text>
<text text-anchor="middle" x="519" y="-78.9" font-family="Times Roman,serif" font-size="14.00">has_cake(mike),</text>
<text text-anchor="middle" x="519" y="-61.9" font-family="Times Roman,serif" font-size="14.00">has_mix(mike),</text>
<text text-anchor="middle" x="519" y="-44.9" font-family="Times Roman,serif" font-size="14.00">hungry(mike),</text>
<text text-anchor="middle" x="519" y="-27.9" font-family="Times Roman,serif" font-size="14.00">person(mike)</text>
</g>
<!-- state7&#45;&gt;state9 -->
<g id="edge24" class="edge"><title>state7&#45;&gt;state9</title>
<path fill="none" stroke="black" d="M697.863,-196.765C666.642,-173.94 627.988,-145.68 594.61,-121.278"/>
<polygon fill="black" stroke="black" points="596.384,-118.239 586.246,-115.163 592.253,-123.89 596.384,-118.239"/>
<text text-anchor="middle" x="711" y="-154.9" font-family="Times Roman,serif" font-size="14.00">make_cake(mike)</text>
</g>
<!-- state8&#45;&gt;state8 -->
<g id="edge38" class="edge"><title>state8&#45;&gt;state8</title>
<path fill="none" stroke="black" d="M199.429,-246.356C210.697,-245.165 218,-243.047 218,-240 218,-238 214.855,-236.401 209.508,-235.201"/>
<polygon fill="black" stroke="black" points="209.846,-231.712 199.429,-233.644 208.777,-238.63 209.846,-231.712"/>
<text text-anchor="middle" x="277" y="-235.9" font-family="Times Roman,serif" font-size="14.00">make_cake(mike)</text>
</g>
<!-- state8&#45;&gt;state8 -->
<g id="edge40" class="edge"><title>state8&#45;&gt;state8</title>
<path fill="none" stroke="black" d="M196.478,-254.148C262.911,-257.099 336,-252.383 336,-240 336,-228.246 270.145,-223.4 206.64,-225.461"/>
<polygon fill="black" stroke="black" points="206.336,-221.97 196.478,-225.852 206.605,-228.965 206.336,-221.97"/>
<text text-anchor="middle" x="400.5" y="-235.9" font-family="Times Roman,serif" font-size="14.00">go_shopping(mike)</text>
</g>
<!-- state8&#45;&gt;state9 -->
<g id="edge36" class="edge"><title>state8&#45;&gt;state9</title>
<path fill="none" stroke="black" d="M179.303,-207.067C249.152,-178.061 350.991,-135.77 424.935,-105.063"/>
<polygon fill="black" stroke="black" points="426.372,-108.256 434.265,-101.188 423.688,-101.791 426.372,-108.256"/>
<text text-anchor="middle" x="346" y="-154.9" font-family="Times Roman,serif" font-size="14.00">wait(mike)</text>
</g>
<!-- state10 -->
<g id="node26" class="node"><title>state10</title>
<ellipse fill="none" stroke="black" cx="100" cy="-66" rx="99.9096" ry="29.6985"/>
<text text-anchor="middle" x="100" y="-70.4" font-family="Times Roman,serif" font-size="14.00">eaten_cake(mike),</text>
<text text-anchor="middle" x="100" y="-53.4" font-family="Times Roman,serif" font-size="14.00">has_mix(mike)</text>
</g>
<!-- state8&#45;&gt;state10 -->
<g id="edge34" class="edge"><title>state8&#45;&gt;state10</title>
<path fill="none" stroke="black" d="M100,-186.374C100,-160.454 100,-129.874 100,-106.023"/>
<polygon fill="black" stroke="black" points="103.5,-105.913 100,-95.9132 96.5001,-105.913 103.5,-105.913"/>
<text text-anchor="middle" x="160" y="-154.9" font-family="Times Roman,serif" font-size="14.00">eat_cake_b(mike)</text>
</g>
<!-- state9&#45;&gt;state6 -->
<g id="edge28" class="edge"><title>state9&#45;&gt;state6</title>
<path fill="none" stroke="black" d="M512.08,-131.947C505.682,-192.915 496.303,-282.293 490.43,-338.259"/>
<polygon fill="black" stroke="black" points="486.938,-337.995 489.375,-348.306 493.9,-338.726 486.938,-337.995"/>
<text text-anchor="middle" x="565" y="-235.9" font-family="Times Roman,serif" font-size="14.00">eat_cake_a(mike)</text>
</g>
<!-- state9&#45;&gt;state9 -->
<g id="edge30" class="edge"><title>state9&#45;&gt;state9</title>
<path fill="none" stroke="black" d="M618.429,-73.3089C629.697,-71.9402 637,-69.5039 637,-66 637,-63.7006 633.855,-61.8609 628.508,-60.481"/>
<polygon fill="black" stroke="black" points="628.887,-56.9936 618.429,-58.6911 627.663,-63.8858 628.887,-56.9936"/>
<text text-anchor="middle" x="696" y="-61.9" font-family="Times Roman,serif" font-size="14.00">make_cake(mike)</text>
</g>
<!-- state9&#45;&gt;state9 -->
<g id="edge32" class="edge"><title>state9&#45;&gt;state9</title>
<path fill="none" stroke="black" d="M616.107,-82.3024C682.371,-85.6295 755,-80.1953 755,-66 755,-52.5255 689.56,-46.945 626.241,-49.2585"/>
<polygon fill="black" stroke="black" points="625.946,-45.7679 616.107,-49.6976 626.249,-52.7613 625.946,-45.7679"/>
<text text-anchor="middle" x="819.5" y="-61.9" font-family="Times Roman,serif" font-size="14.00">go_shopping(mike)</text>
</g>
<!-- state11&#45;&gt;state5 -->
<g id="edge50" class="edge"><title>state11&#45;&gt;state5</title>
<path fill="none" stroke="black" d="M577.356,-657.082C541.421,-635.434 494.006,-606.871 455.005,-583.376"/>
<polygon fill="black" stroke="black" points="456.681,-580.3 446.309,-578.138 453.068,-586.296 456.681,-580.3"/>
<text text-anchor="middle" x="566" y="-616.9" font-family="Times Roman,serif" font-size="14.00">wait(mike)</text>
</g>
<!-- state11&#45;&gt;state11 -->
<g id="edge52" class="edge"><title>state11&#45;&gt;state11</title>
<path fill="none" stroke="black" d="M720.56,-695.552C731.681,-694.573 739,-692.723 739,-690 739,-688.213 735.848,-686.802 730.538,-685.767"/>
<polygon fill="black" stroke="black" points="730.932,-682.288 720.56,-684.448 730.015,-689.228 730.932,-682.288"/>
<text text-anchor="middle" x="798" y="-685.9" font-family="Times Roman,serif" font-size="14.00">make_cake(mike)</text>
</g>
<!-- state11&#45;&gt;state11 -->
<g id="edge54" class="edge"><title>state11&#45;&gt;state11</title>
<path fill="none" stroke="black" d="M717.619,-701.783C782.447,-704.769 857,-700.841 857,-690 857,-679.731 790.102,-675.665 727.944,-677.802"/>
<polygon fill="black" stroke="black" points="727.471,-674.318 717.619,-678.217 727.752,-681.313 727.471,-674.318"/>
<text text-anchor="middle" x="921.5" y="-685.9" font-family="Times Roman,serif" font-size="14.00">go_shopping(mike)</text>
</g>
<!-- state12 -->
<g id="node35" class="node"><title>state12</title>
<ellipse fill="none" stroke="black" cx="853" cy="-540" rx="80.1057" ry="18"/>
<text text-anchor="middle" x="853" y="-535.9" font-family="Times Roman,serif" font-size="14.00">has_mix(mike)</text>
</g>
<!-- state11&#45;&gt;state12 -->
<g id="edge48" class="edge"><title>state11&#45;&gt;state12</title>
<path fill="none" stroke="black" d="M682.425,-655.775C724.411,-627.277 783.023,-587.496 819.459,-562.765"/>
<polygon fill="black" stroke="black" points="821.466,-565.633 827.775,-557.121 817.535,-559.841 821.466,-565.633"/>
<text text-anchor="middle" x="802" y="-616.9" font-family="Times Roman,serif" font-size="14.00">eat_cake_b(mike)</text>
</g>
</g>
</svg>
